<svg xmlns="http://www.w3.org/2000/svg" viewBox="0 0 489 384.65"><defs><style>.a{fill:#1a1a1a;}.a,.b,.c{stroke:#000;stroke-miterlimit:10;stroke-width:9px;}.b{fill:#c69c6d;}.c{fill:#fff;}</style></defs><polygon points="252 384.65 489 204.65 0 204.65 252 384.65"/><path class="a" d="M791.5,232V446s-5,82,104,94,148-38,152-74,0-234,0-234l-42,42s-23-29-81-29-85,29-85,29Z" transform="translate(-676 -221.35)"/><path class="b" d="M1049.28,418.5s-90.28,10-98.28,13-21,26-29,26-20-22-29-26-102-13-102-13-6.61,67.55,33.2,95.28,75,30.4,117.93,27.56S1029.44,521.7,1043,486.5C1052.5,465,1050,418.5,1049.28,418.5Z" transform="translate(-676 -221.35)"/><path class="c" d="M949,380.5l54-22s6,28-16,32S949,380.5,949,380.5Z" transform="translate(-676 -221.35)"/><path d="M939.5,363a53.21,53.21,0,0,1,5.69-9.44,83.93,83.93,0,0,1,7.21-8.48c1.33-1.3,2.63-2.65,4-3.87.7-.63,1.38-1.27,2.09-1.87l2.17-1.79c1.43-1.22,3-2.28,4.47-3.43s3.1-2.13,4.66-3.2a3.52,3.52,0,1,1,4,5.8,4.25,4.25,0,0,1-.46.27l-.18.09c-1.6.75-3.22,1.48-4.81,2.27s-3.17,1.6-4.68,2.52l-2.31,1.35c-.76.46-1.5,1-2.25,1.44-1.52.94-2.94,2-4.41,3a81.08,81.08,0,0,0-8.2,7A52.13,52.13,0,0,0,939.5,363Z" transform="translate(-676 -221.35)"/><path class="c" d="M895.86,380.76l-54-22s-6,28,16,32S895.86,380.76,895.86,380.76Z" transform="translate(-676 -221.35)"/><path d="M905.36,363.26a52.12,52.12,0,0,0-7-8.3,82.17,82.17,0,0,0-8.19-7c-1.47-1-2.89-2.11-4.42-3.05-.75-.48-1.48-1-2.25-1.44l-2.3-1.35c-1.52-.92-3.14-1.68-4.69-2.53s-3.21-1.51-4.8-2.26l-.17-.08a3.52,3.52,0,0,1,3-6.36,3.77,3.77,0,0,1,.48.28c1.56,1.07,3.13,2.1,4.66,3.2s3,2.2,4.47,3.43l2.17,1.78c.72.6,1.4,1.25,2.1,1.87,1.4,1.23,2.71,2.58,4,3.88a86.6,86.6,0,0,1,7.21,8.48A52.81,52.81,0,0,1,905.36,363.26Z" transform="translate(-676 -221.35)"/><path d="M939.05,492a33.54,33.54,0,0,1-8.56,3.55,51.5,51.5,0,0,1-8.82,1.58,34.87,34.87,0,0,1-8.89-.35c-2.95-.51-5.88-1.16-8.81-1.74s-5.85-1.26-8.73-2.1a72.48,72.48,0,0,1-8.48-3.12,45.33,45.33,0,0,1-7.88-4.53,24.37,24.37,0,0,1-6.26-6.47.5.5,0,0,1,.76-.64,25.52,25.52,0,0,0,7.08,4.41,45.44,45.44,0,0,0,7.91,2.5,68.68,68.68,0,0,0,8.22,1.34c2.76.36,5.55.55,8.35.67a76.48,76.48,0,0,0,8.42-.21,50.19,50.19,0,0,1,8.4.24q4.2.47,8.48,1.35A55.12,55.12,0,0,1,939,491h0a.55.55,0,0,1,.32.72A.61.61,0,0,1,939.05,492Z" transform="translate(-676 -221.35)"/></svg>